<mxfile host="app.diagrams.net" modified="2021-07-29T08:55:46.128Z" agent="5.0 (Macintosh; Intel Mac OS X 10_15_7) AppleWebKit/537.36 (KHTML, like Gecko) Chrome/91.0.4472.114 Safari/537.36" etag="SfPX4AWHLwAxpb8OGfAa" version="14.9.0" type="github">
  <diagram id="SL1lb7ijx7Cb3OfJvjon" name="Page-1">
    <mxGraphModel dx="1209" dy="562" grid="1" gridSize="10" guides="1" tooltips="1" connect="1" arrows="1" fold="1" page="1" pageScale="1" pageWidth="827" pageHeight="1169" math="0" shadow="0">
      <root>
        <mxCell id="0" />
        <mxCell id="1" parent="0" />
        <mxCell id="6-Um68GeObjWVh0zbRat-1" value="" style="rounded=0;whiteSpace=wrap;html=1;" vertex="1" parent="1">
          <mxGeometry x="160" y="160" width="880" height="550" as="geometry" />
        </mxCell>
        <mxCell id="6-Um68GeObjWVh0zbRat-2" value="资讯流转" style="strokeWidth=2;html=1;shape=mxgraph.flowchart.stored_data;whiteSpace=wrap;" vertex="1" parent="1">
          <mxGeometry x="160" y="160" width="90" height="50" as="geometry" />
        </mxCell>
        <mxCell id="6-Um68GeObjWVh0zbRat-3" value="" style="endArrow=none;dashed=1;html=1;dashPattern=1 3;strokeWidth=2;startArrow=none;" edge="1" parent="1">
          <mxGeometry width="50" height="50" relative="1" as="geometry">
            <mxPoint x="291.01391534109825" y="487.80999999999995" as="sourcePoint" />
            <mxPoint x="290" y="140" as="targetPoint" />
          </mxGeometry>
        </mxCell>
        <mxCell id="6-Um68GeObjWVh0zbRat-4" value="&lt;span style=&quot;font-size: 14px&quot;&gt;爬虫&lt;/span&gt;" style="rounded=0;whiteSpace=wrap;html=1;" vertex="1" parent="1">
          <mxGeometry x="241.1" y="80" width="100" height="40" as="geometry" />
        </mxCell>
        <mxCell id="6-Um68GeObjWVh0zbRat-5" value="&lt;span style=&quot;font-size: 14px&quot;&gt;文章资讯&lt;/span&gt;" style="rounded=0;whiteSpace=wrap;html=1;" vertex="1" parent="1">
          <mxGeometry x="390.02" y="80" width="100" height="40" as="geometry" />
        </mxCell>
        <mxCell id="6-Um68GeObjWVh0zbRat-6" value="" style="endArrow=none;dashed=1;html=1;dashPattern=1 3;strokeWidth=2;" edge="1" parent="1">
          <mxGeometry width="50" height="50" relative="1" as="geometry">
            <mxPoint x="440" y="730" as="sourcePoint" />
            <mxPoint x="440" y="140" as="targetPoint" />
          </mxGeometry>
        </mxCell>
        <mxCell id="6-Um68GeObjWVh0zbRat-7" value="" style="endArrow=none;dashed=1;html=1;dashPattern=1 3;strokeWidth=2;" edge="1" parent="1">
          <mxGeometry width="50" height="50" relative="1" as="geometry">
            <mxPoint x="600" y="720" as="sourcePoint" />
            <mxPoint x="600" y="140" as="targetPoint" />
          </mxGeometry>
        </mxCell>
        <mxCell id="6-Um68GeObjWVh0zbRat-8" value="" style="endArrow=none;dashed=1;html=1;dashPattern=1 3;strokeWidth=2;" edge="1" parent="1">
          <mxGeometry width="50" height="50" relative="1" as="geometry">
            <mxPoint x="760" y="730" as="sourcePoint" />
            <mxPoint x="760" y="140" as="targetPoint" />
          </mxGeometry>
        </mxCell>
        <mxCell id="6-Um68GeObjWVh0zbRat-9" value="&lt;span style=&quot;font-size: 14px&quot;&gt;消息队列&lt;/span&gt;" style="rounded=0;whiteSpace=wrap;html=1;" vertex="1" parent="1">
          <mxGeometry x="550" y="80" width="100" height="40" as="geometry" />
        </mxCell>
        <mxCell id="6-Um68GeObjWVh0zbRat-10" value="" style="endArrow=none;dashed=1;html=1;dashPattern=1 3;strokeWidth=2;entryX=0.5;entryY=1;entryDx=0;entryDy=0;" edge="1" parent="1">
          <mxGeometry width="50" height="50" relative="1" as="geometry">
            <mxPoint x="920" y="720" as="sourcePoint" />
            <mxPoint x="920" y="120" as="targetPoint" />
          </mxGeometry>
        </mxCell>
        <mxCell id="6-Um68GeObjWVh0zbRat-11" value="" style="rounded=0;whiteSpace=wrap;html=1;rotation=-90;" vertex="1" parent="1">
          <mxGeometry x="87.52" y="425" width="401.23" height="11.25" as="geometry" />
        </mxCell>
        <mxCell id="6-Um68GeObjWVh0zbRat-12" value="" style="endArrow=classic;html=1;" edge="1" parent="1">
          <mxGeometry width="50" height="50" relative="1" as="geometry">
            <mxPoint x="430" y="257.3299999999999" as="sourcePoint" />
            <mxPoint x="310" y="257.3299999999999" as="targetPoint" />
          </mxGeometry>
        </mxCell>
        <mxCell id="6-Um68GeObjWVh0zbRat-13" value="" style="rounded=0;whiteSpace=wrap;html=1;rotation=-90;" vertex="1" parent="1">
          <mxGeometry x="294.73" y="370.77" width="290.55" height="11.25" as="geometry" />
        </mxCell>
        <mxCell id="6-Um68GeObjWVh0zbRat-14" value="&lt;font style=&quot;font-size: 14px&quot;&gt;4. 订阅发布资讯&lt;/font&gt;" style="text;html=1;strokeColor=none;fillColor=none;align=center;verticalAlign=middle;whiteSpace=wrap;rounded=0;" vertex="1" parent="1">
          <mxGeometry x="445.28" y="420.63" width="140" height="20" as="geometry" />
        </mxCell>
        <mxCell id="6-Um68GeObjWVh0zbRat-15" value="" style="endArrow=classic;html=1;" edge="1" parent="1">
          <mxGeometry width="50" height="50" relative="1" as="geometry">
            <mxPoint x="457.3800000000001" y="450" as="sourcePoint" />
            <mxPoint x="580.19" y="450" as="targetPoint" />
          </mxGeometry>
        </mxCell>
        <mxCell id="6-Um68GeObjWVh0zbRat-16" value="" style="rounded=0;whiteSpace=wrap;html=1;rotation=-90;" vertex="1" parent="1">
          <mxGeometry x="471.11" y="532.34" width="257.77" height="11.25" as="geometry" />
        </mxCell>
        <mxCell id="6-Um68GeObjWVh0zbRat-18" value="" style="endArrow=none;dashed=1;html=1;dashPattern=1 3;strokeWidth=2;" edge="1" parent="1">
          <mxGeometry width="50" height="50" relative="1" as="geometry">
            <mxPoint x="290" y="730" as="sourcePoint" />
            <mxPoint x="290.9529245481049" y="543.44" as="targetPoint" />
          </mxGeometry>
        </mxCell>
        <mxCell id="6-Um68GeObjWVh0zbRat-19" value="" style="rounded=0;whiteSpace=wrap;html=1;rotation=-90;" vertex="1" parent="1">
          <mxGeometry x="414" y="638.75" width="55.63" height="11.25" as="geometry" />
        </mxCell>
        <mxCell id="6-Um68GeObjWVh0zbRat-20" value="&lt;font style=&quot;font-size: 14px&quot;&gt;5. 推送资讯&amp;nbsp;&amp;nbsp;&lt;/font&gt;" style="text;html=1;strokeColor=none;fillColor=none;align=center;verticalAlign=middle;whiteSpace=wrap;rounded=0;" vertex="1" parent="1">
          <mxGeometry x="455.09" y="610" width="130.19" height="20" as="geometry" />
        </mxCell>
        <mxCell id="6-Um68GeObjWVh0zbRat-21" value="&lt;font style=&quot;font-size: 14px&quot;&gt;1. 绑定公众号&lt;/font&gt;" style="text;html=1;strokeColor=none;fillColor=none;align=center;verticalAlign=middle;whiteSpace=wrap;rounded=0;" vertex="1" parent="1">
          <mxGeometry x="291" y="230" width="140" height="20" as="geometry" />
        </mxCell>
        <mxCell id="6-Um68GeObjWVh0zbRat-22" value="" style="endArrow=classic;html=1;" edge="1" parent="1">
          <mxGeometry width="50" height="50" relative="1" as="geometry">
            <mxPoint x="581.8" y="638.75" as="sourcePoint" />
            <mxPoint x="461.99000000000007" y="638.75" as="targetPoint" />
          </mxGeometry>
        </mxCell>
        <mxCell id="6-Um68GeObjWVh0zbRat-24" value="&lt;span style=&quot;font-size: 14px&quot;&gt;爬虫&lt;/span&gt;" style="rounded=0;whiteSpace=wrap;html=1;" vertex="1" parent="1">
          <mxGeometry x="710" y="80" width="100" height="40" as="geometry" />
        </mxCell>
        <mxCell id="6-Um68GeObjWVh0zbRat-25" value="" style="endArrow=classic;html=1;" edge="1" parent="1">
          <mxGeometry width="50" height="50" relative="1" as="geometry">
            <mxPoint x="430.19" y="435.1299999999999" as="sourcePoint" />
            <mxPoint x="310.19" y="435.1299999999999" as="targetPoint" />
          </mxGeometry>
        </mxCell>
        <mxCell id="6-Um68GeObjWVh0zbRat-26" value="&lt;font style=&quot;font-size: 14px&quot;&gt;3. 拉取历史文章&lt;/font&gt;" style="text;html=1;strokeColor=none;fillColor=none;align=center;verticalAlign=middle;whiteSpace=wrap;rounded=0;" vertex="1" parent="1">
          <mxGeometry x="300.19" y="410" width="140" height="20" as="geometry" />
        </mxCell>
        <mxCell id="6-Um68GeObjWVh0zbRat-27" value="" style="endArrow=classic;html=1;" edge="1" parent="1">
          <mxGeometry width="50" height="50" relative="1" as="geometry">
            <mxPoint x="308.1900000000001" y="317.57" as="sourcePoint" />
            <mxPoint x="431.00000000000006" y="317.57" as="targetPoint" />
          </mxGeometry>
        </mxCell>
        <mxCell id="6-Um68GeObjWVh0zbRat-28" value="&lt;span style=&quot;font-size: 14px&quot;&gt;return&lt;/span&gt;" style="text;html=1;strokeColor=none;fillColor=none;align=center;verticalAlign=middle;whiteSpace=wrap;rounded=0;" vertex="1" parent="1">
          <mxGeometry x="291" y="290" width="140" height="20" as="geometry" />
        </mxCell>
        <mxCell id="6-Um68GeObjWVh0zbRat-29" value="" style="endArrow=classic;html=1;" edge="1" parent="1">
          <mxGeometry width="50" height="50" relative="1" as="geometry">
            <mxPoint x="308.19000000000005" y="507.56999999999994" as="sourcePoint" />
            <mxPoint x="431" y="507.56999999999994" as="targetPoint" />
          </mxGeometry>
        </mxCell>
        <mxCell id="6-Um68GeObjWVh0zbRat-30" value="&lt;span style=&quot;font-size: 14px&quot;&gt;return&lt;/span&gt;" style="text;html=1;strokeColor=none;fillColor=none;align=center;verticalAlign=middle;whiteSpace=wrap;rounded=0;" vertex="1" parent="1">
          <mxGeometry x="291" y="480" width="140" height="20" as="geometry" />
        </mxCell>
        <mxCell id="6-Um68GeObjWVh0zbRat-32" value="" style="shape=crossbar;whiteSpace=wrap;html=1;rounded=1;direction=south;" vertex="1" parent="1">
          <mxGeometry x="260" y="240" width="20" height="120" as="geometry" />
        </mxCell>
        <mxCell id="6-Um68GeObjWVh0zbRat-33" value="&lt;font style=&quot;font-size: 14px&quot;&gt;2.校验公众号&lt;/font&gt;" style="text;html=1;strokeColor=none;fillColor=none;align=center;verticalAlign=middle;whiteSpace=wrap;rounded=0;" vertex="1" parent="1">
          <mxGeometry x="170" y="280" width="100" height="20" as="geometry" />
        </mxCell>
      </root>
    </mxGraphModel>
  </diagram>
</mxfile>
